<?xml version="1.0" standalone="no"?><!DOCTYPE svg PUBLIC "-//W3C//DTD SVG 1.1//EN" "http://www.w3.org/Graphics/SVG/1.1/DTD/svg11.dtd"><svg t="1555480460378" class="icon" style="" viewBox="0 0 1024 1024" version="1.1" xmlns="http://www.w3.org/2000/svg" p-id="2264" xmlns:xlink="http://www.w3.org/1999/xlink" width="200" height="200"><defs><style type="text/css"></style></defs><path d="M912 240.6v543c0 19.7-7 36.4-20.9 50.4-14 14-30.8 20.9-50.4 20.9H183.5c-19.7 0-36.4-7-50.4-20.9-14.1-14-21-30.9-21-50.5V240.6c0-19.7 6.9-36.4 20.9-50.4 14-14 30.8-20.9 50.4-20.9h657.2c19.7 0 36.4 7 50.4 20.9 14.1 13.8 21 30.6 21 50.4zM636.6 701.7l65.2-65.2c3-3 4.6-6.4 4.6-10.2 0-3.8-1.6-7.3-4.6-10.2L597.8 512l104-104c3-3 4.6-6.4 4.6-10.2 0-3.8-1.6-7.3-4.6-10.2l-65.2-65.2c-3-3-6.4-4.6-10.2-4.6-3.8 0-7.3 1.6-10.2 4.6L512 426.2l-104-104c-3-3-6.4-4.6-10.2-4.6s-7.3 1.6-10.2 4.6l-65.2 65.2c-3 3-4.6 6.4-4.6 10.2s1.6 7.3 4.6 10.2l104 104L322.2 616c-3 3-4.6 6.4-4.6 10.2 0 3.8 1.6 7.3 4.6 10.2l65.2 65.2c3 3 6.4 4.6 10.2 4.6 3.8 0 7.3-1.6 10.2-4.6l104.1-104 104 104c3 3 6.4 4.6 10.2 4.6 4.1 0 7.5-1.5 10.5-4.5z" p-id="2265" fill="#bfbfbf"></path></svg>