<?xml version="1.0" standalone="no"?><!DOCTYPE svg PUBLIC "-//W3C//DTD SVG 1.1//EN" "http://www.w3.org/Graphics/SVG/1.1/DTD/svg11.dtd"><svg t="1556072258659" class="icon" style="" viewBox="0 0 1024 1024" version="1.1" xmlns="http://www.w3.org/2000/svg" p-id="3024" xmlns:xlink="http://www.w3.org/1999/xlink" width="200" height="200"><defs><style type="text/css"></style></defs><path d="M759.85 850.33c-12.43 0-23.88-8.26-27.5-20.96C703.42 727.9 612.69 657.02 511.7 657.02c-102.02 0-190.56 68.77-220.3 171.13-4.46 15.35-20.32 24.15-35.55 19.62-15.16-4.51-23.85-20.62-19.39-35.97 36.97-127.24 147.58-212.73 275.23-212.73 126.35 0 239.71 88.1 275.67 214.25 4.38 15.37-4.38 31.43-19.58 35.87-2.64 0.77-5.31 1.14-7.93 1.14z" p-id="3025" fill="#8a8a8a"></path><path d="M514.25 657.73h-6.88c-77.04 0-139.72-63.43-139.72-141.39v-84.22c0-77.96 62.68-141.39 139.72-141.39h6.88c77.04 0 139.72 63.43 139.72 141.39v84.22c0 77.97-62.68 141.39-139.72 141.39z m-6.88-309.05c-45.47 0-82.46 37.43-82.46 83.44v84.22c0 46.01 36.99 83.44 82.46 83.44h6.88c45.47 0 82.46-37.43 82.46-83.44v-84.22c0-46.01-36.99-83.44-82.46-83.44h-6.88z" p-id="3026" fill="#8a8a8a"></path><path d="M512 946.6C275.18 946.6 82.51 751.65 82.51 512S275.18 77.4 512 77.4 941.49 272.35 941.49 512 748.82 946.6 512 946.6z m0-811.26c-205.25 0-372.22 168.97-372.22 376.66S306.75 888.66 512 888.66 884.22 719.69 884.22 512 717.25 135.34 512 135.34z" p-id="3027" fill="#8a8a8a"></path></svg>